<svg width="2933" height="795" viewBox="0 0 2933 795" fill="none" xmlns="http://www.w3.org/2000/svg">
<path fill-rule="evenodd" clip-rule="evenodd" d="M0 0H2933V315.468C2759.47 340.011 2611.89 445.244 2529.44 591.982C2503.33 579.802 2474.21 573 2443.5 573C2353.68 573 2277.45 631.189 2250.46 711.925C2214.65 702.832 2177.14 698 2138.5 698C2090.61 698 2044.46 705.422 2001.13 719.177C1987.1 706.042 1968.24 698 1947.5 698C1936.33 698 1925.71 700.333 1916.09 704.538C1889.79 674.771 1851.34 656 1808.5 656C1778.64 656 1750.92 665.118 1727.95 680.721C1681.65 615.533 1605.54 573 1519.5 573C1415.41 573 1325.85 635.25 1286.03 724.554C1257.59 727.092 1231.62 738.228 1210.74 755.345C1164.01 694.914 1090.8 656 1008.5 656C923.544 656 848.272 697.465 801.818 761.26C761 753.863 718.951 750 676 750C588.989 750 505.68 765.853 428.805 794.828C414.508 787.891 398.458 784 381.5 784C367.784 784 354.663 786.545 342.583 791.188C329.307 766.66 303.349 750 273.5 750C247.654 750 224.725 762.491 210.422 781.765C180.401 766.565 146.451 758 110.5 758C70.2583 758 32.5232 768.731 0 787.488V0Z" fill="white"/>
</svg>
